<svg aria-hidden="true" focusable="false" data-icon="cog" class="svg-inline" viewBox="0 0 16 16" fill="none" xmlns="http://www.w3.org/2000/svg">
<path d="M14.1411 7.40627L15.1362 6.83183C15.4308 6.6618 15.5736 6.31489 15.4855 5.98639C15.1291 4.6573 14.4279 3.4693 13.4837 2.52399C13.2437 2.28374 12.872 2.23505 12.5779 2.40489L11.5846 2.97858C11.2619 2.74767 10.9176 2.54861 10.5565 2.38421V1.23568C10.5565 1.07025 10.5018 0.909463 10.401 0.778318C10.3002 0.647172 10.1588 0.553016 9.99896 0.510488C8.69393 0.163395 7.3078 0.162957 6.00115 0.510457C5.67243 0.597895 5.44352 0.895488 5.44352 1.23564V2.38418C5.08241 2.54858 4.7381 2.74764 4.41543 2.97855L3.42215 2.40486C3.12809 2.23502 2.75637 2.28371 2.51637 2.52396C1.57212 3.46927 0.870929 4.65724 0.514555 5.98636C0.426461 6.31486 0.569273 6.66177 0.863836 6.8318L1.85893 7.40627C1.8208 7.80117 1.8208 8.19883 1.85893 8.59374L0.863836 9.16818C0.569273 9.33821 0.426461 9.68511 0.514555 10.0136C0.870929 11.3427 1.57212 12.5307 2.51637 13.476C2.75637 13.7163 3.12809 13.765 3.42215 13.5951L4.41543 13.0214C4.73809 13.2523 5.0824 13.4514 5.44352 13.6158V14.7643C5.44354 14.9297 5.49822 15.0905 5.59905 15.2217C5.69988 15.3528 5.84122 15.447 6.00108 15.4895C7.30612 15.8366 8.69224 15.8371 9.9989 15.4895C10.3276 15.4021 10.5565 15.1045 10.5565 14.7643V13.6158C10.9176 13.4514 11.2619 13.2523 11.5846 13.0215L12.5779 13.5951C12.872 13.765 13.2437 13.7163 13.4837 13.4761C14.4279 12.5307 15.1291 11.3427 15.4855 10.0136C15.5736 9.68515 15.4308 9.33824 15.1362 9.16821L14.1411 8.59377C14.1792 8.19846 14.1792 7.80158 14.1411 7.40627ZM12.4949 9.37561L13.8642 10.1659C13.6179 10.8311 13.2602 11.4496 12.8065 11.9949L11.4368 11.204C10.4373 12.0601 10.2912 12.1439 9.05655 12.5799V14.1611C8.35726 14.2805 7.64279 14.2805 6.94349 14.1611V12.5799C5.70899 12.144 5.56237 12.0598 4.56324 11.204L3.19359 11.9949C2.73982 11.4496 2.38213 10.8311 2.1358 10.1659L3.50515 9.37561C3.26671 8.08502 3.26659 7.91564 3.50515 6.62443L2.1358 5.83414C2.38112 5.17074 2.73924 4.55136 3.19359 4.00511L4.56324 4.79602C5.56274 3.93986 5.70887 3.85608 6.94349 3.42011V1.83893C7.64279 1.71955 8.35726 1.71955 9.05655 1.83893V3.42014C10.2911 3.85608 10.4377 3.94021 11.4368 4.79605L12.8065 4.00514C13.2602 4.55042 13.6179 5.16892 13.8642 5.83418L12.4949 6.62446C12.7334 7.91508 12.7335 8.0844 12.4949 9.37561ZM8.00002 5.00002C6.3458 5.00002 5.00002 6.3458 5.00002 8.00002C5.00002 9.65424 6.3458 11 8.00002 11C9.65424 11 11 9.65424 11 8.00002C11 6.3458 9.65424 5.00002 8.00002 5.00002ZM8.00002 9.50002C7.1729 9.50002 6.50002 8.82714 6.50002 8.00002C6.50002 7.17293 7.1729 6.50002 8.00002 6.50002C8.82715 6.50002 9.50002 7.17293 9.50002 8.00002C9.50002 8.82714 8.82715 9.50002 8.00002 9.50002Z" fill="black"/>
</svg>
