<svg aria-hidden="true" focusable="false" data-icon="search-plus" class="svg-inline" viewBox="0 0 15 15" fill="none" xmlns="http://www.w3.org/2000/svg">
<g clip-path="url(#clip0)">
<path d="M9.14062 5.74219V6.44531C9.14062 6.63867 8.98242 6.79688 8.78906 6.79688H6.79688V8.78906C6.79688 8.98242 6.63867 9.14062 6.44531 9.14062H5.74219C5.54883 9.14062 5.39062 8.98242 5.39062 8.78906V6.79688H3.39844C3.20508 6.79688 3.04688 6.63867 3.04688 6.44531V5.74219C3.04688 5.54883 3.20508 5.39062 3.39844 5.39062H5.39062V3.39844C5.39062 3.20508 5.54883 3.04688 5.74219 3.04688H6.44531C6.63867 3.04688 6.79688 3.20508 6.79688 3.39844V5.39062H8.78906C8.98242 5.39062 9.14062 5.54883 9.14062 5.74219ZM14.8975 14.2354L14.2354 14.8975C14.0977 15.0352 13.875 15.0352 13.7373 14.8975L10.1807 11.3408C10.1133 11.2734 10.0781 11.1855 10.0781 11.0918V10.7051C9.00879 11.6279 7.61719 12.1875 6.09375 12.1875C2.72754 12.1875 0 9.45996 0 6.09375C0 2.72754 2.72754 0 6.09375 0C9.45996 0 12.1875 2.72754 12.1875 6.09375C12.1875 7.61719 11.6279 9.00879 10.7051 10.0781H11.0918C11.1855 10.0781 11.2734 10.1162 11.3408 10.1807L14.8975 13.7373C15.0352 13.875 15.0352 14.0977 14.8975 14.2354ZM10.7812 6.09375C10.7812 3.50391 8.68359 1.40625 6.09375 1.40625C3.50391 1.40625 1.40625 3.50391 1.40625 6.09375C1.40625 8.68359 3.50391 10.7812 6.09375 10.7812C8.68359 10.7812 10.7812 8.68359 10.7812 6.09375Z" fill="black"/>
</g>
<defs>
<clipPath id="clip0">
<rect width="15" height="15" fill="white"/>
</clipPath>
</defs>
</svg>
