<svg viewBox="0 0 40 40" fill="none" xmlns="http://www.w3.org/2000/svg">
<path d="M7 25.4281V10.1245C7 9.52595 7.52235 9.06145 8.11684 9.13139L31.6168 11.8961C32.1205 11.9553 32.5 12.3822 32.5 12.8892V23.8117C32.5 24.2262 32.2443 24.5978 31.8571 24.7458L15.9494 30.8282C15.6654 30.9368 15.3474 30.9102 15.0853 30.756L7.49298 26.29C7.18754 26.1103 7 25.7824 7 25.4281Z" fill="#D9D9D9" stroke="black"/>
<path d="M10 13.5H11.25" stroke="black"/>
<path d="M16 13.5H17.25" stroke="black"/>
<path d="M22 13.5H23.25" stroke="black"/>
<path d="M28 13.5H29.25" stroke="black"/>
<path d="M10 16.5H11.25" stroke="black"/>
<path d="M16 16.5H17.25" stroke="black"/>
<path d="M22 16.5H23.25" stroke="black"/>
<path d="M28 16.5H29.25" stroke="black"/>
<path d="M10 19.5H11.25" stroke="black"/>
<path d="M16 19.5H17.25" stroke="black"/>
<path d="M22 19.5H23.25" stroke="black"/>
<path d="M28 19.5H29.25" stroke="black"/>
<path d="M10 22.5H11.25" stroke="black"/>
<path d="M10 25.5H11.25" stroke="black"/>
<path d="M16 22.5H17.25" stroke="black"/>
<path d="M16 25.5H17.25" stroke="black"/>
<path d="M22 22.5H23.25" stroke="black"/>
<path d="M22 25.5H23.25" stroke="black"/>
<path d="M28 22.5H29.25" stroke="black"/>
</svg>