<svg aria-hidden="true" focusable="false" data-icon="pointer-outline" class="svg-inline" viewBox="0 0 13 16" fill="none" xmlns="http://www.w3.org/2000/svg">
<g clip-path="url(#clip0)">
<path d="M12.0751 7.98674L3.92412 0.58237C2.60855 -0.658943 0.270752 0.215901 0.270752 1.96468V12.8744C0.270752 14.6007 2.55445 15.4959 3.90716 14.2722L4.71719 13.5394L5.31083 14.8103L5.31492 14.8191L5.31915 14.8276C5.78983 15.8009 7.02185 16.2618 8.10044 15.8479L9.51903 15.3043L9.52763 15.301L9.5362 15.2976C10.0649 15.0883 10.4727 14.7026 10.6843 14.2117C10.8936 13.7259 10.8849 13.1939 10.6597 12.7137L10.0263 11.3568H10.5858C12.4765 11.3568 13.469 9.21662 12.0751 7.98674V7.98674ZM10.5899 9.85684H7.55674L9.16844 13.3097C9.2807 13.5491 9.15239 13.8175 8.89581 13.919L7.47658 14.4631C7.21197 14.5646 6.91528 14.4485 6.80305 14.2164L5.27155 10.9377L2.7698 13.2009C2.43871 13.5004 1.89575 13.2729 1.89575 12.8744V1.96462C1.89575 1.54871 2.47053 1.34496 2.76977 1.63821L10.9507 9.06615C11.2822 9.35024 11.0372 9.85684 10.5899 9.85684V9.85684Z" fill="black"/>
</g>
<defs>
<clipPath id="clip0">
<rect width="13" height="16" fill="white"/>
</clipPath>
</defs>
</svg>
