<svg aria-hidden="true" focusable="false" data-icon="hand" class="svg-inline" viewBox="0 0 13 16" fill="none" xmlns="http://www.w3.org/2000/svg">
<g clip-path="url(#clip0)">
<path d="M10.8117 3.51955V3.18127C10.8117 1.8184 9.63585 0.78468 8.40204 1.13296C7.65835 -0.413914 5.67175 -0.349851 4.97846 1.1563C3.7806 0.826274 2.58724 1.8103 2.58724 3.18702V7.12859C2.00825 6.89649 1.33054 6.97021 0.785729 7.40581C-0.0660898 8.08693 -0.252936 9.38496 0.363519 10.3168L3.84476 15.5798C3.93064 15.7096 4.04408 15.8154 4.17563 15.8884C4.30718 15.9615 4.45303 15.9996 4.60103 15.9996H11.069C11.5015 15.9996 11.8767 15.678 11.9739 15.2241L12.8497 11.1317C12.9498 10.6637 13.0004 10.1849 13.0005 9.70465V5.59327C13.0005 4.3239 11.9697 3.34352 10.8117 3.51955ZM11.6075 9.70462C11.6075 10.0712 11.5688 10.438 11.4925 10.7948L10.6996 14.4995H4.84028L1.49754 9.44649C1.07855 8.81305 1.93347 8.10974 2.35049 8.74009L3.13768 9.93005C3.3987 10.3246 3.9801 10.1265 3.9801 9.63996V3.18702C3.9801 2.38562 5.04131 2.41171 5.04131 3.20862V7.99952C5.04131 8.27568 5.24917 8.49952 5.5056 8.49952H5.70454C5.96098 8.49952 6.16883 8.27568 6.16883 7.99952V2.09327C6.16883 1.2913 7.23004 1.31796 7.23004 2.11487V7.99952C7.23004 8.27568 7.4379 8.49952 7.69433 8.49952H7.89327C8.1497 8.49952 8.35756 8.27568 8.35756 7.99952V3.15968C8.35756 2.35743 9.41874 2.38437 9.41874 3.18127V7.99952C9.41874 8.27568 9.6266 8.49952 9.88303 8.49952H10.082C10.3384 8.49952 10.5463 8.27568 10.5463 7.99952V5.61487C10.5463 4.7948 11.6075 4.81362 11.6075 5.59327V9.70462H11.6075Z" fill="black"/>
</g>
<defs>
<clipPath id="clip0">
<rect width="13" height="16" fill="white"/>
</clipPath>
</defs>
</svg>
