<svg aria-hidden="true" focusable="false" data-icon="pointer-minus" class="svg-inline" viewBox="0 0 36 36" fill="none" xmlns="http://www.w3.org/2000/svg">
<path d="M34.0344 19.5559L19.1756 4.94598C16.7773 2.49668 12.5156 4.22288 12.5156 7.67348V29.2001C12.5156 32.6063 16.6787 34.3726 19.1446 31.9579L20.6212 30.5121L21.7034 33.0198L21.7109 33.0371L21.7186 33.054C22.5766 34.9744 24.8226 35.8838 26.7888 35.0671L29.3748 33.9945L29.3905 33.988L29.4061 33.9813C30.3699 33.5683 31.1132 32.8073 31.4989 31.8386C31.8806 30.8801 31.8647 29.8304 31.4543 28.883L30.2996 26.2055H31.3196C34.7662 26.2056 36.5754 21.9826 34.0344 19.5559ZM31.3269 23.2459H25.7977L28.7357 30.0589C28.9403 30.5312 28.7064 31.0608 28.2387 31.2612L25.6515 32.3347C25.1691 32.5351 24.6283 32.306 24.4237 31.848L21.6319 25.3786L17.0712 29.8442C16.4677 30.4351 15.4779 29.9864 15.4779 29.2001V7.67334C15.4779 6.85272 16.5257 6.45069 17.0712 7.02932L31.9847 21.6858C32.5889 22.2463 32.1422 23.2459 31.3269 23.2459Z" fill="black"/>
<path d="M11.1797 9.59766H6.85547H4.39453H0V7.13672H4.39453H6.85547H11.1797V9.59766Z" fill="black"/>
</svg>
