<svg aria-hidden="true" focusable="false" data-icon="pointer-plus" class="svg-inline" viewBox="0 0 18 18" fill="none" xmlns="http://www.w3.org/2000/svg">
<path d="M17.0172 9.77797L9.58778 2.47299C8.38867 1.24834 6.25781 2.11144 6.25781 3.83674V14.6C6.25781 16.3031 8.33934 17.1863 9.57231 15.979L10.3106 15.2561L10.8517 16.5099L10.8554 16.5185L10.8593 16.527C11.2883 17.4872 12.4113 17.9419 13.3944 17.5335L14.6874 16.9972L14.6952 16.994L14.703 16.9906C15.185 16.7842 15.5566 16.4037 15.7495 15.9193C15.9403 15.44 15.9324 14.9152 15.7271 14.4415L15.1498 13.1027H15.6598C17.3831 13.1028 18.2877 10.9913 17.0172 9.77797ZM15.6634 11.6229H12.8988L14.3678 15.0294C14.4702 15.2656 14.3532 15.5304 14.1193 15.6306L12.8257 16.1673C12.5846 16.2675 12.3141 16.153 12.2118 15.924L10.8159 12.6893L8.53562 14.9221C8.23384 15.2176 7.73895 14.9932 7.73895 14.6V3.83667C7.73895 3.42636 8.26284 3.22534 8.53559 3.51466L15.9924 10.8429C16.2944 11.1232 16.0711 11.6229 15.6634 11.6229Z" fill="black"/>
<path fill-rule="evenodd" clip-rule="evenodd" d="M2.19727 4.79883V6.96094H3.42773V4.79883H5.58984V3.56836H3.42773V1.37109H2.19727V3.56836H1.07571e-07L0 4.79883H2.19727Z" fill="black"/>
</svg>
