<svg xmlns="http://www.w3.org/2000/svg" fill="black" viewBox="0 0 40 40">
<path fill="none" d="M18.1429 12H20.3186L21.5385 13.1533L22.7583 12H24.934L26.9231 13.8806V15.3351L28.4615 16.7897V18.2442L30 19.6988V22.1818H28.0109L21.8571 28H18.1429L11.9891 22.1818H10V19.6988L11.9891 17.8182H13.0769V16.7897L15.066 14.9091H16.1538V13.8806L18.1429 12Z" clip-rule="evenodd" fill-rule="evenodd"></path>
<path fill="black" d="M18.1429 12H20.3186L21.5385 13.1533L22.7583 12H24.934L26.9231 13.8806V15.3351L28.4615 16.7897V18.2442L30 19.6988V22.1818H28.0109L21.8571 28H18.1429L11.9891 22.1818H10V19.6988L11.9891 17.8182H13.0769V16.7897L15.066 14.9091H16.1538V13.8806L18.1429 12ZM16.6045 16.3636H15.7032L14.6154 17.3922V18.2442L18.7802 22.1818H21.2198L26.6045 17.0909L25.8352 16.3636H24.934L21.8571 19.2727H19.6814L16.6045 16.3636ZM25.3846 14.9091V14.4831L24.2968 13.4545H23.3956L21.5385 15.2103L19.6814 13.4545H18.7802L17.6923 14.4831V15.3351L20.3186 17.8182H21.2198L24.2968 14.9091H25.3846ZM26.9231 18.8467L21.8571 23.6364H18.1429L13.5275 19.2727H12.6263L11.5385 20.3012V20.7273H12.6263L18.7802 26.5455H21.2198L27.3737 20.7273H28.4615V20.3012L26.9231 18.8467Z" clip-rule="evenodd" fill-rule="evenodd"></path>
<defs>
<linearGradient gradientUnits="userSpaceOnUse" y2="28" x2="20" y1="12" x1="20" id="paint0_linear_44_1863">
<stop stop-opacity="0.7" stop-color="black"></stop>
<stop stop-color="black" offset="1"></stop>
</linearGradient>
<linearGradient gradientUnits="userSpaceOnUse" y2="28" x2="20" y1="12" x1="20" id="paint1_linear_44_1863">
<stop stop-opacity="0.7" stop-color="black"></stop>
<stop stop-color="black" offset="1"></stop>
</linearGradient>
</defs>
</svg>
