<svg viewBox="0 0 40 40" fill="none" xmlns="http://www.w3.org/2000/svg">
<path d="M19.5 30C19.5 30.2761 19.7239 30.5 20 30.5C20.2761 30.5 20.5 30.2761 20.5 30H19.5ZM20 16L17.1132 21H22.8868L20 16ZM20.5 30V20.5H19.5V30H20.5Z" fill="black"/>
<path d="M12.5 30C12.5 30.2761 12.7239 30.5 13 30.5C13.2761 30.5 13.5 30.2761 13.5 30H12.5ZM13 16L10.1132 21H15.8868L13 16ZM13.5 30V20.5H12.5V30H13.5Z" fill="black"/>
<path d="M26.5 30C26.5 30.2761 26.7239 30.5 27 30.5C27.2761 30.5 27.5 30.2761 27.5 30H26.5ZM27 16L24.1132 21H29.8868L27 16ZM27.5 30V20.5H26.5V30H27.5Z" fill="black"/>
<rect x="10.5" y="10.5" width="19" height="5" stroke="black"/>
</svg>
