<svg xmlns="http://www.w3.org/2000/svg" fill="none" viewBox="0 0 40 40">
<path fill="black" d="M11.5 22H28.5V27H29.5C29.7761 27 30 27.2239 30 27.5C30 27.7761 29.7761 28 29.5 28H26.5C26.2239 28 26 27.7761 26 27.5C26 27.2239 26.2239 27 26.5 27H27.5V23H12.5V27H13.5C13.7761 27 14 27.2239 14 27.5C14 27.7761 13.7761 28 13.5 28H10.5C10.2239 28 10 27.7761 10 27.5C10 27.2239 10.2239 27 10.5 27H11.5V22Z" clip-rule="evenodd" fill-rule="evenodd"></path>
<path fill="#0619C9" d="M15.5 19.931L14 22L12.5 19.931H13.7402V16.2069C13.7402 16.0926 13.8565 16 14 16C14.1435 16 14.2598 16.0926 14.2598 16.2069V19.931H15.5Z" clip-rule="evenodd" fill-rule="evenodd"></path>
<path fill="#0619C9" d="M19.5 19.931L18 22L16.5 19.931H17.7402V16.2069C17.7402 16.0926 17.8565 16 18 16C18.1435 16 18.2598 16.0926 18.2598 16.2069V19.931H19.5Z" clip-rule="evenodd" fill-rule="evenodd"></path>
<path fill="#0619C9" d="M23.5 19.931L22 22L20.5 19.931H21.7402V16.2069C21.7402 16.0926 21.8565 16 22 16C22.1435 16 22.2598 16.0926 22.2598 16.2069V19.931H23.5Z" clip-rule="evenodd" fill-rule="evenodd"></path>
<path fill="#0619C9" d="M27.5 19.931L26 22L24.5 19.931H25.7402V16.2069C25.7402 16.0926 25.8565 16 26 16C26.1435 16 26.2598 16.0926 26.2598 16.2069V19.931H27.5Z" clip-rule="evenodd" fill-rule="evenodd"></path>
<path fill="#0619C9" d="M13.75 15.75H26.25V16.25H13.75V15.75Z" clip-rule="evenodd" fill-rule="evenodd"></path>
<path stroke-width="0.5" stroke="#C90606" d="M18.6667 11H16L18 13L16 15H18.6667"></path>
<path stroke-width="0.5" stroke="#C90606" d="M25 11L21 15M21 11L25 15"></path>
</svg>
