<svg viewBox="0 0 40 40" fill="none" xmlns="http://www.w3.org/2000/svg">
<path d="M20.5 10C20.5 9.72386 20.2761 9.5 20 9.5C19.7239 9.5 19.5 9.72386 19.5 10H20.5ZM20 24L22.8868 19H17.1132L20 24ZM19.5 10V19.5H20.5V10H19.5Z" fill="black"/>
<path d="M27.5 10C27.5 9.72386 27.2761 9.5 27 9.5C26.7239 9.5 26.5 9.72386 26.5 10H27.5ZM27 24L29.8868 19H24.1132L27 24ZM26.5 10V19.5H27.5V10H26.5Z" fill="black"/>
<path d="M13.5 10C13.5 9.72386 13.2761 9.5 13 9.5C12.7239 9.5 12.5 9.72386 12.5 10H13.5ZM13 24L15.8868 19H10.1132L13 24ZM12.5 10L12.5 19.5H13.5L13.5 10H12.5Z" fill="black"/>
<rect x="29.5" y="29.5" width="19" height="5" transform="rotate(-180 29.5 29.5)" stroke="black"/>
</svg>
