<svg xmlns="http://www.w3.org/2000/svg" fill="none" viewBox="0 0 40 40">
<path fill="black" d="M11.5 20H28.5V25H29.5C29.7761 25 30 25.2239 30 25.5C30 25.7761 29.7761 26 29.5 26H26.5C26.2239 26 26 25.7761 26 25.5C26 25.2239 26.2239 25 26.5 25H27.5V21H12.5V25H13.5C13.7761 25 14 25.2239 14 25.5C14 25.7761 13.7761 26 13.5 26H10.5C10.2239 26 10 25.7761 10 25.5C10 25.2239 10.2239 25 10.5 25H11.5V20Z" clip-rule="evenodd" fill-rule="evenodd"></path>
<path fill="#C90606" d="M15.5 17.931L14 20L12.5 17.931H13.7402V14.2069C13.7402 14.0926 13.8565 14 14 14C14.1435 14 14.2598 14.0926 14.2598 14.2069V17.931H15.5Z" clip-rule="evenodd" fill-rule="evenodd"></path>
<path fill="#C90606" d="M19.5 17.931L18 20L16.5 17.931H17.7402V14.2069C17.7402 14.0926 17.8565 14 18 14C18.1435 14 18.2598 14.0926 18.2598 14.2069V17.931H19.5Z" clip-rule="evenodd" fill-rule="evenodd"></path>
<path fill="#C90606" d="M23.5 17.931L22 20L20.5 17.931H21.7402V14.2069C21.7402 14.0926 21.8565 14 22 14C22.1435 14 22.2598 14.0926 22.2598 14.2069V17.931H23.5Z" clip-rule="evenodd" fill-rule="evenodd"></path>
<path fill="#C90606" d="M27.5 17.931L26 20L24.5 17.931H25.7402V14.2069C25.7402 14.0926 25.8565 14 26 14C26.1435 14 26.2598 14.0926 26.2598 14.2069V17.931H27.5Z" clip-rule="evenodd" fill-rule="evenodd"></path>
<path fill="#C90606" d="M13.75 13.75H26.25V14.25H13.75V13.75Z" clip-rule="evenodd" fill-rule="evenodd"></path>
</svg>
