<svg xmlns="http://www.w3.org/2000/svg" fill="none" viewBox="0 0 40 40">
<path fill="black" d="M11.5 23.5H28.5V28.5H29.5C29.7761 28.5 30 28.7239 30 29C30 29.2761 29.7761 29.5 29.5 29.5H26.5C26.2239 29.5 26 29.2761 26 29C26 28.7239 26.2239 28.5 26.5 28.5H27.5V24.5H12.5V28.5H13.5C13.7761 28.5 14 28.7239 14 29C14 29.2761 13.7761 29.5 13.5 29.5H10.5C10.2239 29.5 10 29.2761 10 29C10 28.7239 10.2239 28.5 10.5 28.5H11.5V23.5Z" clip-rule="evenodd" fill-rule="evenodd"></path>
<path fill="#0619C9" d="M15.5 21.431L14 23.5L12.5 21.431H13.7402V17.7069C13.7402 17.5926 13.8565 17.5 14 17.5C14.1435 17.5 14.2598 17.5926 14.2598 17.7069V21.431H15.5Z" clip-rule="evenodd" fill-rule="evenodd"></path>
<path fill="#0619C9" d="M19.5 21.431L18 23.5L16.5 21.431H17.7402V17.7069C17.7402 17.5926 17.8565 17.5 18 17.5C18.1435 17.5 18.2598 17.5926 18.2598 17.7069V21.431H19.5Z" clip-rule="evenodd" fill-rule="evenodd"></path>
<path fill="#0619C9" d="M23.5 21.431L22 23.5L20.5 21.431H21.7402V17.7069C21.7402 17.5926 21.8565 17.5 22 17.5C22.1435 17.5 22.2598 17.5926 22.2598 17.7069V21.431H23.5Z" clip-rule="evenodd" fill-rule="evenodd"></path>
<path fill="#0619C9" d="M27.5 21.431L26 23.5L24.5 21.431H25.7402V17.7069C25.7402 17.5926 25.8565 17.5 26 17.5C26.1435 17.5 26.2598 17.5926 26.2598 17.7069V21.431H27.5Z" clip-rule="evenodd" fill-rule="evenodd"></path>
<path fill="#0619C9" d="M13.75 17.25H26.25V17.75H13.75V17.25Z" clip-rule="evenodd" fill-rule="evenodd"></path>
<path fill="#0619C9" d="M21.75 11H26.25V11.5H21.75V11Z" clip-rule="evenodd" fill-rule="evenodd"></path>
<path fill="#0619C9" d="M23.5 15.181L22 17.25L20.5 15.181H21.7402V11.4569C21.7402 11.3426 21.8565 11.25 22 11.25C22.1435 11.25 22.2598 11.3426 22.2598 11.4569V15.181H23.5Z" clip-rule="evenodd" fill-rule="evenodd"></path>
<path fill="#0619C9" d="M27.5 15.181L26 17.25L24.5 15.181H25.7402V11.4569C25.7402 11.3426 25.8565 11.25 26 11.25C26.1435 11.25 26.2598 11.3426 26.2598 11.4569V15.181H27.5Z" clip-rule="evenodd" fill-rule="evenodd"></path>
<path stroke-width="0.5" stroke="#C90606" d="M14 14H16.5M19 14H16.5M16.5 14V11.5V16.5"></path>
</svg>
