<svg viewBox="0 0 56 40" fill="none" xmlns="http://www.w3.org/2000/svg">
<path fill-rule="evenodd" clip-rule="evenodd" d="M28 7C28.5523 7 29 7.44772 29 8V13C29 13.5523 28.5523 14 28 14C27.4477 14 27 13.5523 27 13V8C27 7.44772 27.4477 7 28 7Z" fill="black"/>
<path fill-rule="evenodd" clip-rule="evenodd" d="M28 16C28.5523 16 29 16.4477 29 17V22C29 22.5523 28.5523 23 28 23C27.4477 23 27 22.5523 27 22V17C27 16.4477 27.4477 16 28 16Z" fill="black"/>
<path fill-rule="evenodd" clip-rule="evenodd" d="M28 25C28.5523 25 29 25.4477 29 26V31C29 31.5523 28.5523 32 28 32C27.4477 32 27 31.5523 27 31V26C27 25.4477 27.4477 25 28 25Z" fill="black"/>
<path d="M10 14.5C10 13.9477 10.4477 13.5 11 13.5H21C21.5523 13.5 22 13.9477 22 14.5V24.5C22 25.0523 21.5523 25.5 21 25.5H11C10.4477 25.5 10 25.0523 10 24.5V14.5Z" fill="black"/>
<path fill-rule="evenodd" clip-rule="evenodd" d="M21 14.5H11L11 24.5H21V14.5ZM11 13.5C10.4477 13.5 10 13.9477 10 14.5V24.5C10 25.0523 10.4477 25.5 11 25.5H21C21.5523 25.5 22 25.0523 22 24.5V14.5C22 13.9477 21.5523 13.5 21 13.5H11Z" fill="black"/>
<path fill-rule="evenodd" clip-rule="evenodd" d="M45 14.5H35V24.5H45V14.5ZM35 13.5C34.4477 13.5 34 13.9477 34 14.5V24.5C34 25.0523 34.4477 25.5 35 25.5H45C45.5523 25.5 46 25.0523 46 24.5V14.5C46 13.9477 45.5523 13.5 45 13.5H35Z" fill="black"/>
</svg>
