<svg xmlns="http://www.w3.org/2000/svg" fill="none" viewBox="0 0 40 40">
<path fill="#0619C9" d="M27.3524 24.5723L30.0001 25.8961L26.9111 28.1025L27.3524 24.5723ZM28.1048 25.9781L28.0856 26.1318L28.22 26.0358L28.1048 25.9781Z" clip-rule="evenodd" fill-rule="evenodd"></path>
<path fill="#0619C9" d="M27.3391 21.7803C25.9415 20.2149 23.3696 20.2352 21.915 21.7883C20.545 23.2512 20.3603 25.3139 21.8375 26.7911C22.0173 26.9709 22.0173 27.2625 21.8375 27.4423C21.6577 27.6221 21.3661 27.6221 21.1863 27.4423C19.2925 25.5486 19.5998 22.9131 21.2428 21.1588C23.047 19.2324 26.2487 19.1761 28.0261 21.1669C29.652 22.9879 29.6875 25.5786 27.8239 27.4422C27.6441 27.622 27.3525 27.622 27.1727 27.4422C26.9928 27.2624 26.9928 26.9708 27.1727 26.791C28.68 25.2837 28.6502 23.2487 27.3391 21.7803Z" clip-rule="evenodd" fill-rule="evenodd"></path>
<path fill="black" d="M21.0516 21.1306H19.3579V14.5747C19.3579 14.0378 19.3914 13.3808 19.4584 12.6037H19.4297C19.3245 13.0464 19.2312 13.3643 19.1498 13.5574L16.0784 21.1306H14.9014L11.8228 13.6139C11.7367 13.3925 11.6458 13.0558 11.5501 12.6037H11.5214C11.5597 13.0087 11.5788 13.6704 11.5788 14.5888V21.1306H10V11H12.4041L15.1096 17.7467C15.3153 18.2647 15.4492 18.6509 15.5114 18.9053H15.5473C15.7243 18.3731 15.8679 17.9774 15.9779 17.7184L18.7336 11H21.0516V21.1306Z"></path>
</svg>
