<svg viewBox="0 0 40 40" fill="none" xmlns="http://www.w3.org/2000/svg">
<path d="M18.2217 23.5238C18.2217 24.3525 17.55 25.0241 16.7217 25.0241C15.8933 25.0241 15.2217 24.3525 15.2217 23.5238C15.2217 22.6951 15.8933 22.0234 16.7217 22.0234C17.55 22.0234 18.2217 22.6951 18.2217 23.5238Z" stroke="#A3A3A3"/>
<line x1="17.7217" y1="23.5244" x2="31.7217" y2="23.5244" stroke="#A3A3A3"/>
<path d="M7.72168 23.5239C8.07394 23.5239 12.9761 20.0333 16.4178 17.4924M31.7217 23.5239C30.2875 23.5239 23.256 19.9078 19.0532 17.3574" stroke="black"/>
<line x1="7.72168" y1="23.5244" x2="15.7217" y2="23.5244" stroke="#A3A3A3"/>
<path d="M19.2217 17.0228C19.2217 17.8515 18.55 18.5231 17.7217 18.5231C16.8933 18.5231 16.2217 17.8515 16.2217 17.0228C16.2217 16.1941 16.8933 15.5225 17.7217 15.5225C18.55 15.5225 19.2217 16.1941 19.2217 17.0228Z" stroke="black"/>
</svg>
