<svg viewBox="0 0 40 40" fill="none" xmlns="http://www.w3.org/2000/svg">
<path fill-rule="evenodd" clip-rule="evenodd" d="M14.4972 10.0638C14.7775 9.94195 15.1033 9.99756 15.3273 10.2055L26.594 20.6644C26.8556 20.9072 26.9157 21.2982 26.7393 21.6084L25.6513 23.5213C25.5473 23.704 25.3732 23.8363 25.1692 23.8872L23.4529 24.3164L24.8458 27.5199C24.9272 27.7069 24.9309 27.9187 24.8561 28.1085C24.7813 28.2983 24.6342 28.4507 24.4471 28.532L21.2182 29.936C20.8286 30.1054 20.3754 29.9269 20.206 29.5373L18.8131 26.3338L17.3287 27.2964C17.1524 27.4108 16.9369 27.448 16.7323 27.3994L14.5914 26.8905C14.2441 26.808 13.9992 26.4973 14 26.1404L14.0347 10.7675C14.0354 10.4619 14.2169 10.1857 14.4972 10.0638ZM15.5692 12.5292L15.5398 25.5346L16.7679 25.8265L18.7379 24.549C18.9276 24.4259 19.1619 24.3926 19.3784 24.4579C19.5949 24.5231 19.7717 24.6803 19.8619 24.8876L21.3101 28.2184L23.1283 27.4279L21.68 24.0971C21.5898 23.8897 21.5955 23.6532 21.6954 23.4504C21.7953 23.2475 21.9795 23.099 22.1988 23.0441L24.4767 22.4746L25.1008 21.3774L15.5692 12.5292Z" fill="black"/>
</svg>
