<svg viewBox="0 0 40 40" fill="none" xmlns="http://www.w3.org/2000/svg">
<path fill-rule="evenodd" clip-rule="evenodd" d="M14.1905 9H27.8095V13.1905H32V14.2381H27.8095V25.7619H32V26.8095H27.8095V31H14.1905V26.8095H10V25.7619H14.1905V14.2381H10V13.1905H14.1905V9ZM15.2381 14.9789V25.0211L20.2592 20L15.2381 14.9789ZM21 19.2592L15.2892 13.5485C15.2726 13.5318 15.2556 13.5157 15.2381 13.5002V10.0476H26.7619V13.5002C26.7444 13.5157 26.7274 13.5318 26.7108 13.5485L21 19.2592ZM21 20.7408L15.2892 26.4515C15.2726 26.4682 15.2556 26.4843 15.2381 26.4998V29.9524H26.7619V26.4998C26.7444 26.4843 26.7274 26.4682 26.7108 26.4515L21 20.7408ZM26.7619 25.0211L21.7408 20L26.7619 14.9789V25.0211Z" fill="black"/>
</svg>
